<svg  class="svg-icon" style="width: 1em; height: 1em;vertical-align: middle;fill: currentColor;overflow: hidden;" viewBox="0 0 1024 1024" version="1.1" xmlns="http://www.w3.org/2000/svg"><path d="M896.722867 467.891981a219.541226 219.541226 0 1 1-219.961803-219.541226A219.541226 219.541226 0 0 1 896.722867 467.891981z" fill="#fff" /><path d="M747.628299 623.505493a8.726974 8.726974 0 0 1-8.096109-9.252695l4.731492-74.336996a8.726974 8.726974 0 0 1 9.252695-8.096108 8.62183 8.62183 0 0 1 8.096109 9.252695l-4.731492 74.336996a8.832118 8.832118 0 0 1-9.252695 8.096108zM388.665777 612.360201a8.832118 8.832118 0 0 1-8.726974-8.726974V332.04559a8.726974 8.726974 0 1 1 17.453948 0v271.587637a8.726974 8.726974 0 0 1-8.726974 8.726974z" fill="" /><path d="M355.860766 407.644317a9.883561 9.883561 0 0 1-3.785194-0.841154 8.832118 8.832118 0 0 1-3.995482-11.671014l32.805011-66.871753a8.726974 8.726974 0 1 1 15.666496 7.675532l-32.805011 66.871752a8.832118 8.832118 0 0 1-7.88582 4.836637z" fill="" /><path d="M421.470788 407.644317a8.726974 8.726974 0 0 1-7.780676-4.836637L380.885101 336.461649a8.726974 8.726974 0 1 1 15.666496-7.675531l32.80501 66.871752a8.832118 8.832118 0 0 1-3.995482 11.671014 10.514427 10.514427 0 0 1-3.890337 0.315433zM685.488038 590.700483a8.726974 8.726974 0 0 1-4.836636-15.981929l61.719683-42.057706a8.62183 8.62183 0 0 1 12.091591 2.313174 8.832118 8.832118 0 0 1-2.418318 12.09159l-61.61454 42.057707a9.673272 9.673272 0 0 1-4.94178 1.577164z" fill="" /><path d="M570.775644 752.83294a99.361331 99.361331 0 0 1-50.574391-14.930486c-8.201253-4.836636-17.664237-11.671013-28.704385-19.451689-37.431358-26.601499-88.74176-63.086559-134.900092-57.93449a105.144265 105.144265 0 0 0-44.581169 17.348804 8.726974 8.726974 0 0 1-9.357839-14.720198 122.493069 122.493069 0 0 1 51.941267-19.97741c52.572133-5.888079 107.247151 32.805011 147.201971 61.088818 10.514427 7.570387 19.97741 14.194476 27.442654 18.610535a74.547284 74.547284 0 0 0 61.40425 9.673273C649.002978 715.61187 694.004723 626.554677 717.977616 578.293459a336.461649 336.461649 0 0 1 16.823082-31.543279 8.726974 8.726974 0 1 1 14.720197 10.514426 315.432796 315.432796 0 0 0-15.561351 29.124962c-27.232365 53.72872-72.654687 143.627066-138.159565 162.658178a85.271999 85.271999 0 0 1-25.024335 3.785194zM215.282883 799.096416H213.285142a8.832118 8.832118 0 0 1-6.729233-10.514426c0-1.47202 0.73601-3.049184 1.156587-4.626348a8.726974 8.726974 0 1 1 16.823083 4.626348l-0.946299 3.785193a8.62183 8.62183 0 0 1-8.306397 6.729233z m26.391211-54.675017a8.411541 8.411541 0 0 1-4.941781-1.577164 8.62183 8.62183 0 0 1-2.418318-12.091591l2.523463-3.680049a8.726974 8.726974 0 0 1 14.194475 10.514426l-2.418318 3.469761a8.832118 8.832118 0 0 1-6.939521 3.364617z m40.270253-45.632612a8.411541 8.411541 0 0 1-6.518944-2.944039A8.726974 8.726974 0 0 1 276.371701 683.437725l3.364617-2.94404A8.726974 8.726974 0 0 1 290.88161 693.952151l-3.154328 2.733751a8.62183 8.62183 0 0 1-5.782935 2.102885zM346.187494 578.293459a8.726974 8.726974 0 0 1-8.726974-8.726974v-4.416059a8.726974 8.726974 0 0 1 17.348803 0v4.416059a8.726974 8.726974 0 0 1-8.621829 8.726974z m0-60.983674a8.726974 8.726974 0 0 1-8.726974-8.726974v-4.310915a8.726974 8.726974 0 1 1 17.348803 0v4.310915a8.726974 8.726974 0 0 1-8.621829 8.411542z m0-60.983673a8.726974 8.726974 0 0 1-8.726974-8.62183v-4.416059a8.726974 8.726974 0 1 1 17.348803 0v4.416059a8.62183 8.62183 0 0 1-8.621829 8.306397z" fill="" /><path d="M265.857275 783.429921a8.306397 8.306397 0 0 1-6.098368-2.628607 8.726974 8.726974 0 0 1 0-12.301879l247.089024-247.299312a8.726974 8.726974 0 0 1 10.514427-1.366875 8.62183 8.62183 0 0 1 3.890337 9.883561l-16.717938 57.93449 186.10535-186.10535a8.726974 8.726974 0 0 1 12.301879 12.301879l-210.288531 210.288531a8.62183 8.62183 0 0 1-10.514426 1.366875 8.726974 8.726974 0 0 1-3.995482-9.883561L495.282062 557.264606 271.850498 780.801314a8.306397 8.306397 0 0 1-5.993223 2.628607z" fill="" /><path d="M629.130712 440.554472a8.726974 8.726974 0 0 1-2.838896-16.928227L696.948763 399.548208a8.726974 8.726974 0 1 1 5.67779 16.402506l-70.446658 24.078036a9.042407 9.042407 0 0 1-3.049183 0.525722z" fill="" /><path d="M675.91991 486.923093a8.832118 8.832118 0 0 1-2.838896 0 8.726974 8.726974 0 0 1-5.362357-11.040148l24.078037-70.551802a8.726974 8.726974 0 0 1 10.619571-5.782935 8.832118 8.832118 0 0 1 5.467501 10.514427l-24.078036 70.446658a8.832118 8.832118 0 0 1-7.88582 6.4138z" fill="" /></svg>